HIERARCHY
ROOT Junyuan_V1:Solving:Hips
{
	OFFSET 0.000000 0.000000 0.000000
	CHANNELS 6 Xposition Yposition Zposition Xrotation Yrotation Zrotation
	JOINT Junyuan_V1:Solving:Spine
	{
		OFFSET 0.000000 -11.587388 2.561626
		CHANNELS 6 Xposition Yposition Zposition Xrotation Yrotation Zrotation
		JOINT Junyuan_V1:Solving:Spine1
		{
			OFFSET 0.000000 -9.293384 1.638677
			CHANNELS 6 Xposition Yposition Zposition Xrotation Yrotation Zrotation
			JOINT Junyuan_V1:Solving:Spine2
			{
				OFFSET 0.000000 -9.400841 0.822469
				CHANNELS 6 Xposition Yposition Zposition Xrotation Yrotation Zrotation
				JOINT Junyuan_V1:Solving:Spine3
				{
					OFFSET 0.000000 -9.436749 0.000000
					CHANNELS 6 Xposition Yposition Zposition Xrotation Yrotation Zrotation
					JOINT Junyuan_V1:Solving:Neck
					{
						OFFSET 0.000000 -12.132965 -1.213294
						CHANNELS 6 Xposition Yposition Zposition Xrotation Yrotation Zrotation
						JOINT Junyuan_V1:Solving:Neck1
						{
							OFFSET 0.000000 -6.347839 -0.555364
							CHANNELS 6 Xposition Yposition Zposition Xrotation Yrotation Zrotation
							JOINT Junyuan_V1:Solving:Head
							{
								OFFSET 0.000000 -6.275284 -1.106502
								CHANNELS 6 Xposition Yposition Zposition Xrotation Yrotation Zrotation
								JOINT Junyuan_V1:Solving:HeadEnd
								{
									OFFSET 0.000000 -9.728081 0.000002
									CHANNELS 6 Xposition Yposition Zposition Xrotation Yrotation Zrotation
									End Site
									{
										OFFSET 0.000000 -9.728081 0.000002
									}
								}
							}
						}
					}
					JOINT Junyuan_V1:Solving:RightShoulder
					{
						OFFSET 0.000000 -8.666405 -5.270916
						CHANNELS 6 Xposition Yposition Zposition Xrotation Yrotation Zrotation
						JOINT Junyuan_V1:Solving:RightArm
						{
							OFFSET -19.077805 -0.000008 0.000000
							CHANNELS 6 Xposition Yposition Zposition Xrotation Yrotation Zrotation
							JOINT Junyuan_V1:Solving:RightForeArm
							{
								OFFSET -27.209019 -0.000008 0.000000
								CHANNELS 6 Xposition Yposition Zposition Xrotation Yrotation Zrotation
								JOINT Junyuan_V1:Solving:RightHand
								{
									OFFSET -21.734264 -0.000008 0.000000
									CHANNELS 6 Xposition Yposition Zposition Xrotation Yrotation Zrotation
									JOINT Junyuan_V1:Solving:RightHandThumb1
									{
										OFFSET -3.883522 2.884647 -2.887744
										CHANNELS 6 Xposition Yposition Zposition Xrotation Yrotation Zrotation
										End Site
										{
											OFFSET -5.627335 0.000000 -5.679366
										}
									}
									JOINT Junyuan_V1:Solving:RightHandMiddle1
									{
										OFFSET -10.356049 -0.000004 0.066385
										CHANNELS 6 Xposition Yposition Zposition Xrotation Yrotation Zrotation
										End Site
										{
											OFFSET -7.995132 -0.000004 0.000000
										}
									}
								}
							}
						}
					}
					JOINT Junyuan_V1:Solving:LeftShoulder
					{
						OFFSET 0.000000 -8.666405 -5.270916
						CHANNELS 6 Xposition Yposition Zposition Xrotation Yrotation Zrotation
						JOINT Junyuan_V1:Solving:LeftArm
						{
							OFFSET 19.077805 -0.000008 0.000000
							CHANNELS 6 Xposition Yposition Zposition Xrotation Yrotation Zrotation
							JOINT Junyuan_V1:Solving:LeftForeArm
							{
								OFFSET 27.209019 -0.000008 0.000000
								CHANNELS 6 Xposition Yposition Zposition Xrotation Yrotation Zrotation
								JOINT Junyuan_V1:Solving:LeftHand
								{
									OFFSET 21.734264 -0.000008 0.000000
									CHANNELS 6 Xposition Yposition Zposition Xrotation Yrotation Zrotation
									JOINT Junyuan_V1:Solving:LeftHandThumb1
									{
										OFFSET 3.883522 2.884647 -2.887744
										CHANNELS 6 Xposition Yposition Zposition Xrotation Yrotation Zrotation
										End Site
										{
											OFFSET 5.627335 0.000000 -5.679366
										}
									}
									JOINT Junyuan_V1:Solving:LeftHandMiddle1
									{
										OFFSET 10.356049 -0.000004 0.066385
										CHANNELS 6 Xposition Yposition Zposition Xrotation Yrotation Zrotation
										End Site
										{
											OFFSET 7.995132 -0.000004 0.000000
										}
									}
								}
							}
						}
					}
				}
			}
		}
	}
	JOINT Junyuan_V1:Solving:RightUpLeg
	{
		OFFSET -10.145194 0.000000 0.000000
		CHANNELS 6 Xposition Yposition Zposition Xrotation Yrotation Zrotation
		JOINT Junyuan_V1:Solving:RightLeg
		{
			OFFSET 0.000000 45.059078 -0.000006
			CHANNELS 6 Xposition Yposition Zposition Xrotation Yrotation Zrotation
			JOINT Junyuan_V1:Solving:RightFoot
			{
				OFFSET 0.000000 37.058613 -0.000006
				CHANNELS 6 Xposition Yposition Zposition Xrotation Yrotation Zrotation
				JOINT Junyuan_V1:Solving:RightForeFoot
				{
					OFFSET 0.000000 3.397476 -0.000000
					CHANNELS 6 Xposition Yposition Zposition Xrotation Yrotation Zrotation
					JOINT Junyuan_V1:Solving:RightToeBase
					{
						OFFSET 0.000000 0.000000 -13.305598
						CHANNELS 6 Xposition Yposition Zposition Xrotation Yrotation Zrotation
						JOINT Junyuan_V1:Solving:RightToeBaseEnd
						{
							OFFSET 0.000000 0.000000 -4.190945
							CHANNELS 6 Xposition Yposition Zposition Xrotation Yrotation Zrotation
							End Site
							{
								OFFSET 0.000000 -4.190948 0.000000
							}
						}
					}
				}
			}
		}
	}
	JOINT Junyuan_V1:Solving:LeftUpLeg
	{
		OFFSET 10.145194 0.000000 0.000000
		CHANNELS 6 Xposition Yposition Zposition Xrotation Yrotation Zrotation
		JOINT Junyuan_V1:Solving:LeftLeg
		{
			OFFSET 0.000000 45.059078 -0.000006
			CHANNELS 6 Xposition Yposition Zposition Xrotation Yrotation Zrotation
			JOINT Junyuan_V1:Solving:LeftFoot
			{
				OFFSET 0.000000 37.058613 -0.000006
				CHANNELS 6 Xposition Yposition Zposition Xrotation Yrotation Zrotation
				JOINT Junyuan_V1:Solving:LeftForeFoot
				{
					OFFSET 0.000000 3.397476 -0.000000
					CHANNELS 6 Xposition Yposition Zposition Xrotation Yrotation Zrotation
					JOINT Junyuan_V1:Solving:LeftToeBase
					{
						OFFSET 0.000000 0.000000 -13.305598
						CHANNELS 6 Xposition Yposition Zposition Xrotation Yrotation Zrotation
						JOINT Junyuan_V1:Solving:LeftToeBaseEnd
						{
							OFFSET 0.000000 0.000000 -4.652039
							CHANNELS 6 Xposition Yposition Zposition Xrotation Yrotation Zrotation
							End Site
							{
								OFFSET 0.000000 -4.652039 0.000000
							}
						}
					}
				}
			}
		}
	}
}
MOTION
Frames: 5
Frame Time: 0.041667
-37.298115 73.634979 -86.575882 -131.982368 13.522998 195.176918 0.000002 -11.587385 2.561630 22.722345 1.569736 -0.398174 -0.000007 -9.293373 1.638655 14.741425 0.540691 -1.535346 -0.000001 -9.400852 0.822462 19.490310 3.158451 4.343660 -0.000001 -9.436753 0.000005 -2.449906 -0.852090 2.889178 0.000008 -12.132965 -1.213291 2.703557 1.581228 -2.592003 0.000004 -6.347851 -0.555358 -8.920464 -10.747370 9.280627 -0.000000 -6.275294 -1.106505 -4.950407 -1.076055 1.189674 -0.000000 -9.728081 0.000005 -0.000001 0.000000 -0.000001 0.000009 -8.666416 -5.270905 -0.000003 8.287283 14.227431 -19.077806 -0.000001 0.000011 -38.493566 -54.552137 -104.428791 -27.209011 -0.000038 -0.000011 120.071570 -83.607389 120.226848 -21.734261 -0.000009 -0.000000 -1.285643 -5.485800 -13.211340 -3.883521 2.884613 -2.887743 0.000003 -0.000002 0.000001 -10.356045 -0.000024 0.066394 -0.000007 -0.000002 0.000004 0.000010 -8.666416 -5.270906 -0.000005 -16.923706 -17.724872 19.077808 0.000007 0.000008 -37.883883 61.429362 96.619514 27.208992 -0.000023 0.000000 160.404192 61.254229 -162.665367 21.734234 -0.000003 -0.000003 -0.362592 6.897029 3.016728 3.883540 2.884625 -2.887762 -0.000000 -0.000005 0.000003 10.356037 -0.000023 0.066359 0.000001 -0.000008 0.000013 -10.145199 0.000002 0.000003 -51.682716 11.300182 1.163773 -0.000000 45.059086 -0.000001 1.122282 -0.000000 0.000000 -0.000008 37.058620 -0.000018 11.932486 -2.374220 6.161596 -0.000009 3.397476 -0.000015 -0.000000 0.000002 -0.000002 -0.000004 0.000013 -13.305607 5.997119 0.000003 0.000001 -0.000004 0.000000 -4.190944 0.000001 -0.000000 0.000000 10.145201 0.000002 0.000008 -51.692692 -12.763606 -6.671985 -0.000011 45.059071 -0.000008 5.406414 0.000005 -0.000001 0.000009 37.058613 -0.000014 -0.218979 -12.618945 12.381915 0.000002 3.397476 0.000003 -0.000001 0.000003 0.000001 0.000006 0.000009 -13.305598 17.512764 0.000006 -0.000002 0.000009 0.000022 -4.652036 -0.000003 -0.000005 -0.000002 
-37.253643 73.698029 -86.550194 -132.336486 13.432329 195.342440 0.000005 -11.587392 2.561631 22.825691 1.604793 -0.412128 -0.000000 -9.293399 1.638683 14.643953 0.541098 -1.509943 -0.000002 -9.400845 0.822454 19.125708 3.073573 4.299192 -0.000002 -9.436756 -0.000002 -2.466674 -0.844895 2.952069 0.000004 -12.132961 -1.213279 2.494032 1.493696 -2.793401 -0.000003 -6.347852 -0.555353 -8.743004 -10.688765 9.343931 -0.000004 -6.275287 -1.106497 -4.911580 -1.078379 1.219095 0.000000 -9.728073 -0.000005 0.000000 0.000001 0.000002 0.000001 -8.666405 -5.270916 -0.000006 8.345900 14.038181 -19.077805 0.000003 0.000000 -38.223193 -54.770105 -104.315143 -27.209024 -0.000009 -0.000007 119.619767 -83.494480 119.779060 -21.734266 -0.000002 0.000008 -1.283987 -5.447178 -13.284864 -3.883534 2.884632 -2.887747 0.000003 -0.000003 0.000004 -10.356071 -0.000017 0.066386 0.000003 0.000004 0.000001 0.000001 -8.666405 -5.270916 -0.000010 -17.086316 -17.718226 19.077795 -0.000002 -0.000010 -37.812924 61.555523 96.592235 27.209007 0.000011 -0.000002 160.439381 61.246914 -162.698180 21.734257 -0.000002 -0.000010 -0.367648 6.814741 3.095376 3.883521 2.884649 -2.887762 -0.000005 -0.000002 -0.000001 10.356046 -0.000045 0.066388 -0.000000 -0.000001 -0.000004 -10.145187 -0.000001 0.000013 -52.328063 11.212753 1.137757 -0.000006 45.059074 0.000001 1.669825 0.000002 0.000000 0.000002 37.058617 -0.000014 11.703650 -2.193185 6.191888 0.000001 3.397476 -0.000008 -0.000000 -0.000002 0.000000 0.000002 0.000001 -13.305599 6.006648 0.000003 -0.000001 0.000003 -0.000000 -4.190942 -0.000000 -0.000000 0.000000 10.145196 0.000010 0.000012 -52.516320 -12.502303 -6.800133 0.000010 45.059090 -0.000011 6.264359 -0.000003 -0.000001 0.000027 37.058605 -0.000008 -0.559105 -12.809841 12.312328 0.000011 3.397476 0.000012 0.000000 0.000002 0.000001 -0.000015 -0.000005 -13.305589 17.475012 0.000013 0.000001 0.000016 0.000007 -4.652023 -0.000001 0.000008 -0.000002 
-37.209763 73.764549 -86.516312 -132.690467 13.333244 195.498456 0.000003 -11.587394 2.561617 22.923320 1.635517 -0.429746 -0.000004 -9.293388 1.638658 14.567405 0.544080 -1.476196 -0.000008 -9.400849 0.822454 18.783452 2.983175 4.272466 -0.000007 -9.436755 0.000027 -2.491082 -0.846389 3.016112 0.000004 -12.132957 -1.213295 2.160048 1.432743 -3.089464 -0.000003 -6.347847 -0.555361 -8.467362 -10.617763 9.488030 -0.000001 -6.275291 -1.106501 -4.842826 -1.080894 1.263887 -0.000001 -9.728088 -0.000004 -0.000001 0.000001 -0.000004 0.000007 -8.666409 -5.270920 -0.000007 8.441499 13.900685 -19.077801 -0.000012 0.000001 -38.034076 -54.981534 -104.256376 -27.209028 -0.000032 -0.000021 119.388128 -83.453041 119.548733 -21.734253 -0.000009 0.000012 -1.288437 -5.418174 -13.397916 -3.883515 2.884638 -2.887748 0.000001 -0.000010 -0.000002 -10.356057 -0.000018 0.066390 0.000005 -0.000003 -0.000001 0.000006 -8.666412 -5.270928 -0.000008 -17.207606 -17.774032 19.077778 -0.000005 0.000050 -37.767285 61.650770 96.601701 27.209011 0.000008 -0.000011 160.467508 61.227503 -162.726511 21.734245 -0.000007 -0.000007 -0.367175 6.729084 3.130433 3.883493 2.884646 -2.887754 -0.000004 0.000003 -0.000007 10.356033 -0.000026 0.066384 0.000001 0.000006 0.000000 -10.145185 -0.000010 -0.000003 -52.990482 11.073360 1.124902 -0.000013 45.059086 -0.000009 2.247846 -0.000003 -0.000000 -0.000004 37.058632 -0.000008 11.426663 -2.007347 6.179452 -0.000003 3.397476 -0.000010 -0.000000 -0.000001 -0.000001 0.000003 0.000008 -13.305606 6.070934 -0.000000 0.000000 0.000001 0.000000 -4.190946 -0.000000 -0.000000 -0.000001 10.145198 0.000001 -0.000005 -53.374834 -12.259691 -6.932432 0.000001 45.059074 -0.000007 7.184350 0.000005 -0.000001 0.000012 37.058605 0.000007 -0.916979 -12.974017 12.221265 0.000004 3.397476 -0.000014 0.000000 0.000001 -0.000001 -0.000003 -0.000001 -13.305596 17.408190 0.000004 -0.000003 0.000001 0.000014 -4.652052 -0.000002 0.000000 -0.000001 
-37.064266 74.000671 -86.454788 -133.688877 13.180109 196.011266 -0.000003 -11.587401 2.561623 22.801248 1.636422 -0.558821 -0.000000 -9.293385 1.638690 14.313392 0.552926 -1.483459 0.000004 -9.400856 0.822480 18.074535 2.816901 4.020382 -0.000004 -9.436750 -0.000000 -2.393707 -0.870830 3.121567 0.000003 -12.132961 -1.213291 1.348236 1.382342 -3.077333 -0.000003 -6.347852 -0.555340 -7.935647 -10.538689 9.350513 0.000007 -6.275283 -1.106507 -4.702062 -1.072391 1.254110 0.000006 -9.728088 -0.000020 0.000000 0.000000 -0.000001 0.000005 -8.666409 -5.270925 -0.000002 8.884254 13.815058 -19.077801 -0.000008 0.000015 -37.836581 -55.342981 -104.372933 -27.209015 -0.000032 -0.000010 119.153538 -83.031393 119.334647 -21.734259 0.000017 0.000006 -1.281774 -5.327265 -13.549629 -3.883523 2.884640 -2.887751 -0.000003 -0.000003 -0.000002 -10.356048 -0.000006 0.066388 0.000001 0.000003 0.000001 0.000002 -8.666405 -5.270926 -0.000004 -17.472903 -17.927145 19.077787 0.000000 0.000026 -37.904039 61.774710 96.992040 27.209003 0.000007 0.000004 160.383210 61.072553 -162.674943 21.734236 -0.000004 0.000004 -0.390469 6.656987 3.364556 3.883523 2.884639 -2.887755 -0.000000 0.000002 -0.000008 10.356077 -0.000016 0.066390 -0.000007 0.000002 -0.000002 -10.145199 -0.000007 -0.000004 -54.462361 11.177096 1.062069 -0.000001 45.059078 -0.000011 3.009709 -0.000000 0.000000 -0.000005 37.058605 -0.000009 11.241890 -1.728975 6.280299 -0.000005 3.397476 -0.000001 -0.000000 -0.000000 -0.000000 -0.000009 -0.000007 -13.305589 6.071002 0.000002 0.000001 -0.000007 0.000000 -4.190940 0.000000 0.000000 -0.000001 10.145194 -0.000010 -0.000013 -55.199772 -11.734550 -7.143711 0.000017 45.059074 0.000005 8.475267 0.000006 -0.000001 0.000023 37.058617 -0.000002 -1.245328 -13.138368 12.080834 0.000005 3.397476 -0.000000 0.000000 0.000001 0.000001 -0.000008 -0.000001 -13.305603 17.304858 0.000001 0.000002 -0.000013 0.000007 -4.652039 -0.000002 0.000002 -0.000002 
-37.022282 74.057159 -86.421387 -133.984816 13.002489 196.103160 0.000011 -11.587397 2.561627 22.902755 1.712035 -0.518851 0.000003 -9.293397 1.638683 14.263069 0.547737 -1.388283 0.000000 -9.400840 0.822454 17.851674 2.631150 4.031265 0.000007 -9.436747 0.000012 -2.350713 -0.922461 3.138737 -0.000003 -12.132947 -1.213290 1.147132 1.430620 -3.042240 -0.000001 -6.347858 -0.555353 -8.080371 -10.478893 9.110163 -0.000006 -6.275299 -1.106511 -4.718800 -1.077284 1.280982 -0.000003 -9.728073 0.000003 -0.000001 0.000001 -0.000004 0.000004 -8.666409 -5.270906 -0.000005 9.120035 13.748064 -19.077810 0.000001 0.000008 -37.995267 -55.658245 -104.387564 -27.209009 -0.000019 -0.000015 118.289423 -82.978602 118.469822 -21.734255 -0.000006 0.000002 -1.285328 -5.394681 -13.422674 -3.883526 2.884647 -2.887758 0.000000 -0.000002 0.000005 -10.356050 -0.000016 0.066373 -0.000001 0.000001 -0.000002 -0.000003 -8.666405 -5.270907 -0.000007 -17.473396 -18.041919 19.077816 -0.000000 0.000005 -37.967256 61.704243 97.018227 27.209003 -0.000009 -0.000008 160.425434 60.991083 -162.725664 21.734249 -0.000002 -0.000001 -0.390828 6.528218 3.433633 3.883514 2.884652 -2.887747 0.000010 0.000002 -0.000009 10.356031 -0.000005 0.066373 0.000000 0.000003 -0.000003 -10.145185 -0.000008 0.000007 -55.176119 11.260415 1.019409 0.000003 45.059067 -0.000001 3.748282 0.000000 -0.000000 0.000001 37.058601 -0.000009 10.957923 -1.794352 6.386001 -0.000002 3.397484 0.000004 -0.000000 0.000000 -0.000001 -0.000005 0.000011 -13.305587 6.104943 0.000003 0.000000 -0.000000 0.000001 -4.190939 0.000001 0.000000 -0.000000 10.145197 -0.000014 0.000009 -56.065430 -11.616402 -7.318407 0.000002 45.059048 -0.000005 9.487649 -0.000002 -0.000002 0.000027 37.058628 -0.000015 -1.625576 -13.324156 11.993252 0.000027 3.397468 0.000007 0.000000 0.000001 0.000001 0.000014 0.000001 -13.305603 17.240048 0.000004 -0.000000 0.000022 0.000006 -4.652032 -0.000002 0.000002 -0.000003 
